<mxfile host="app.diagrams.net" modified="2024-12-29T04:19:56.658Z" agent="Mozilla/5.0 (Macintosh; Intel Mac OS X 10_15_7) AppleWebKit/537.36 (KHTML, like Gecko) Chrome/131.0.0.0 Safari/537.36" etag="eiRmxKNUfQifGUUGfZJ3" version="24.4.7" type="device">
  <diagram name="Page-1" id="bc7b15i4IZp8_H-XlqAE">
    <mxGraphModel dx="1026" dy="650" grid="1" gridSize="10" guides="1" tooltips="1" connect="1" arrows="1" fold="1" page="1" pageScale="1" pageWidth="850" pageHeight="1100" math="0" shadow="0">
      <root>
        <mxCell id="0" />
        <mxCell id="1" parent="0" />
        <mxCell id="Olo1gMeRh3LsTrFDg5S3-1" value="" style="ellipse;whiteSpace=wrap;html=1;aspect=fixed;" vertex="1" parent="1">
          <mxGeometry x="130" y="180" width="110" height="110" as="geometry" />
        </mxCell>
        <mxCell id="Olo1gMeRh3LsTrFDg5S3-3" value="" style="curved=1;endArrow=classic;html=1;rounded=0;" edge="1" parent="1">
          <mxGeometry width="50" height="50" relative="1" as="geometry">
            <mxPoint x="80" y="270" as="sourcePoint" />
            <mxPoint x="130" y="220" as="targetPoint" />
            <Array as="points">
              <mxPoint x="130" y="270" />
              <mxPoint x="80" y="220" />
            </Array>
          </mxGeometry>
        </mxCell>
        <mxCell id="Olo1gMeRh3LsTrFDg5S3-4" value="" style="endArrow=classic;html=1;rounded=0;" edge="1" parent="1">
          <mxGeometry width="50" height="50" relative="1" as="geometry">
            <mxPoint x="240" y="240" as="sourcePoint" />
            <mxPoint x="440" y="240.5" as="targetPoint" />
          </mxGeometry>
        </mxCell>
        <mxCell id="Olo1gMeRh3LsTrFDg5S3-7" value="" style="ellipse;whiteSpace=wrap;html=1;aspect=fixed;" vertex="1" parent="1">
          <mxGeometry x="440" y="420" width="110" height="110" as="geometry" />
        </mxCell>
        <mxCell id="Olo1gMeRh3LsTrFDg5S3-8" value="" style="ellipse;whiteSpace=wrap;html=1;aspect=fixed;" vertex="1" parent="1">
          <mxGeometry x="440" y="180" width="110" height="110" as="geometry" />
        </mxCell>
        <mxCell id="Olo1gMeRh3LsTrFDg5S3-10" value="" style="endArrow=classic;html=1;rounded=0;entryX=0.5;entryY=0;entryDx=0;entryDy=0;" edge="1" parent="1" target="Olo1gMeRh3LsTrFDg5S3-7">
          <mxGeometry width="50" height="50" relative="1" as="geometry">
            <mxPoint x="494.5" y="290" as="sourcePoint" />
            <mxPoint x="494.5" y="390" as="targetPoint" />
          </mxGeometry>
        </mxCell>
        <mxCell id="Olo1gMeRh3LsTrFDg5S3-11" value="&lt;b&gt;&lt;font style=&quot;font-size: 27px;&quot;&gt;start&lt;/font&gt;&lt;/b&gt;" style="text;html=1;align=center;verticalAlign=middle;resizable=0;points=[];autosize=1;strokeColor=none;fillColor=none;" vertex="1" parent="1">
          <mxGeometry x="145" y="210" width="80" height="50" as="geometry" />
        </mxCell>
        <mxCell id="Olo1gMeRh3LsTrFDg5S3-12" value="&lt;span style=&quot;font-size: 27px;&quot;&gt;&lt;b&gt;playing&lt;/b&gt;&lt;/span&gt;" style="text;html=1;align=center;verticalAlign=middle;resizable=0;points=[];autosize=1;strokeColor=none;fillColor=none;" vertex="1" parent="1">
          <mxGeometry x="440" y="210" width="120" height="50" as="geometry" />
        </mxCell>
        <mxCell id="Olo1gMeRh3LsTrFDg5S3-13" value="&lt;b style=&quot;&quot;&gt;&lt;font style=&quot;font-size: 20px;&quot;&gt;game_over&lt;/font&gt;&lt;/b&gt;" style="text;html=1;align=center;verticalAlign=middle;resizable=0;points=[];autosize=1;strokeColor=none;fillColor=none;strokeWidth=3;" vertex="1" parent="1">
          <mxGeometry x="430" y="455" width="130" height="40" as="geometry" />
        </mxCell>
        <mxCell id="Olo1gMeRh3LsTrFDg5S3-15" value="" style="curved=1;endArrow=classic;html=1;rounded=0;entryX=1;entryY=0;entryDx=0;entryDy=0;" edge="1" parent="1" target="Olo1gMeRh3LsTrFDg5S3-8">
          <mxGeometry width="50" height="50" relative="1" as="geometry">
            <mxPoint x="540" y="210" as="sourcePoint" />
            <mxPoint x="540" y="180" as="targetPoint" />
            <Array as="points">
              <mxPoint x="580" y="190" />
              <mxPoint x="590" y="170" />
              <mxPoint x="545" y="160" />
            </Array>
          </mxGeometry>
        </mxCell>
        <mxCell id="Olo1gMeRh3LsTrFDg5S3-16" value="&lt;span style=&quot;font-size: 17px;&quot;&gt;&lt;b&gt;begin_game&lt;/b&gt;&lt;/span&gt;" style="text;html=1;align=center;verticalAlign=middle;resizable=0;points=[];autosize=1;strokeColor=none;fillColor=none;" vertex="1" parent="1">
          <mxGeometry x="275" y="210" width="120" height="30" as="geometry" />
        </mxCell>
        <mxCell id="Olo1gMeRh3LsTrFDg5S3-17" value="&lt;span style=&quot;font-size: 17px;&quot;&gt;&lt;b&gt;make_move&lt;/b&gt;&lt;/span&gt;" style="text;html=1;align=center;verticalAlign=middle;resizable=0;points=[];autosize=1;strokeColor=none;fillColor=none;" vertex="1" parent="1">
          <mxGeometry x="560" y="140" width="120" height="30" as="geometry" />
        </mxCell>
        <mxCell id="Olo1gMeRh3LsTrFDg5S3-18" value="&lt;span style=&quot;font-size: 17px;&quot;&gt;&lt;b&gt;make_move&lt;/b&gt;&lt;/span&gt;&lt;div&gt;&lt;span style=&quot;font-size: 17px;&quot;&gt;&lt;b&gt;(win or draw)&lt;/b&gt;&lt;/span&gt;&lt;/div&gt;" style="text;html=1;align=center;verticalAlign=middle;resizable=0;points=[];autosize=1;strokeColor=none;fillColor=none;" vertex="1" parent="1">
          <mxGeometry x="485" y="320" width="130" height="50" as="geometry" />
        </mxCell>
        <mxCell id="Olo1gMeRh3LsTrFDg5S3-19" value="" style="endArrow=classic;html=1;rounded=0;entryX=0.664;entryY=0.982;entryDx=0;entryDy=0;entryPerimeter=0;exitX=0;exitY=0.125;exitDx=0;exitDy=0;exitPerimeter=0;" edge="1" parent="1" target="Olo1gMeRh3LsTrFDg5S3-1">
          <mxGeometry width="50" height="50" relative="1" as="geometry">
            <mxPoint x="440" y="469.01" as="sourcePoint" />
            <mxPoint x="215.01999999999998" y="300" as="targetPoint" />
            <Array as="points">
              <mxPoint x="440" y="469.01" />
            </Array>
          </mxGeometry>
        </mxCell>
        <mxCell id="Olo1gMeRh3LsTrFDg5S3-20" value="&lt;b&gt;&lt;font style=&quot;font-size: 17px;&quot;&gt;reset&lt;/font&gt;&lt;/b&gt;" style="text;html=1;align=center;verticalAlign=middle;resizable=0;points=[];autosize=1;strokeColor=none;fillColor=none;" vertex="1" parent="1">
          <mxGeometry x="270" y="370" width="60" height="30" as="geometry" />
        </mxCell>
      </root>
    </mxGraphModel>
  </diagram>
</mxfile>
